<svg xmlns="http://www.w3.org/2000/svg" version="1.1" xmlns:xlink="http://www.w3.org/1999/xlink" xmlns:svgjs="http://svgjs.com/svgjs" width="271" height="279.015"><svg viewBox="95.835 117.28 271 279.015" xmlns="http://www.w3.org/2000/svg">
  <path d="M 366.635 180.405 C 366.605 180.275 366.525 180.165 366.485 180.035 C 366.395 179.805 366.325 179.565 366.205 179.355 C 366.125 179.215 366.005 179.095 365.905 178.965 C 365.775 178.795 365.665 178.605 365.515 178.455 C 365.385 178.325 365.225 178.235 365.085 178.125 C 364.925 177.995 364.785 177.855 364.605 177.755 L 312.155 147.555 C 310.805 146.775 309.145 146.775 307.795 147.555 L 255.345 177.755 C 255.165 177.855 255.025 178.005 254.865 178.125 C 254.725 178.235 254.565 178.325 254.435 178.455 C 254.285 178.605 254.175 178.795 254.045 178.965 C 253.945 179.095 253.825 179.215 253.745 179.355 C 253.625 179.565 253.545 179.805 253.465 180.035 C 253.415 180.155 253.345 180.275 253.315 180.405 C 253.215 180.775 253.165 181.155 253.165 181.545 L 253.165 238.905 L 209.455 264.075 L 209.455 151.855 C 209.455 151.465 209.405 151.085 209.305 150.715 C 209.275 150.585 209.195 150.475 209.155 150.345 C 209.065 150.115 208.995 149.875 208.875 149.665 C 208.795 149.525 208.675 149.405 208.575 149.275 C 208.445 149.105 208.335 148.915 208.185 148.765 C 208.055 148.635 207.895 148.545 207.755 148.435 C 207.595 148.305 207.455 148.165 207.275 148.065 L 154.825 117.865 C 153.475 117.085 151.815 117.085 150.465 117.865 L 98.015 148.065 C 97.835 148.165 97.695 148.315 97.535 148.435 C 97.395 148.545 97.235 148.635 97.105 148.765 C 96.955 148.915 96.845 149.105 96.715 149.275 C 96.615 149.405 96.495 149.525 96.415 149.665 C 96.295 149.875 96.215 150.115 96.135 150.345 C 96.085 150.465 96.015 150.585 95.985 150.715 C 95.885 151.085 95.835 151.465 95.835 151.855 L 95.835 331.515 C 95.835 333.075 96.675 334.525 98.025 335.305 L 202.935 395.705 C 203.165 395.835 203.415 395.915 203.655 396.005 C 203.765 396.045 203.875 396.115 203.995 396.145 C 204.365 396.245 204.735 396.295 205.115 396.295 C 205.495 396.295 205.865 396.245 206.235 396.145 C 206.335 396.115 206.425 396.055 206.525 396.025 C 206.785 395.935 207.045 395.845 207.285 395.715 L 312.195 335.315 C 313.555 334.535 314.385 333.095 314.385 331.525 L 314.385 274.165 L 364.645 245.225 C 366.005 244.445 366.835 243.005 366.835 241.435 L 366.835 181.545 C 366.785 181.155 366.725 180.775 366.635 180.405 Z M 205.035 326.485 L 161.405 301.795 L 207.225 275.415 L 257.495 246.475 L 301.165 271.615 L 269.125 289.905 L 205.035 326.485 Z M 305.585 214.275 L 305.585 264.075 L 287.225 253.505 L 261.865 238.905 L 261.865 189.105 L 280.225 199.675 L 305.585 214.275 Z M 309.955 156.385 L 353.645 181.545 L 309.955 206.705 L 266.265 181.545 L 309.955 156.385 Z M 175.325 283.705 L 156.965 294.275 L 156.965 184.585 L 182.325 169.985 L 200.685 159.415 L 200.685 269.095 L 175.325 283.705 Z M 152.595 126.705 L 196.285 151.865 L 152.595 177.025 L 108.905 151.865 L 152.595 126.705 Z M 104.505 159.415 L 122.865 169.985 L 148.225 184.585 L 148.225 301.825 L 148.225 301.835 L 148.225 301.845 C 148.225 302.015 148.275 302.175 148.295 302.335 C 148.325 302.545 148.325 302.765 148.385 302.975 L 148.385 302.985 C 148.435 303.155 148.525 303.315 148.595 303.475 C 148.675 303.655 148.725 303.855 148.825 304.025 C 148.825 304.025 148.825 304.035 148.835 304.035 C 148.925 304.185 149.055 304.315 149.165 304.455 C 149.285 304.615 149.385 304.775 149.525 304.915 L 149.535 304.925 C 149.655 305.045 149.815 305.135 149.955 305.245 C 150.115 305.365 150.255 305.505 150.425 305.605 C 150.435 305.605 150.435 305.605 150.445 305.615 C 150.455 305.615 150.455 305.625 150.465 305.625 L 200.705 334.055 L 200.705 384.345 L 104.505 328.985 L 104.505 159.415 Z M 305.585 328.985 L 209.415 384.355 L 209.415 334.055 L 280.635 293.395 L 305.585 279.155 L 305.585 328.985 Z M 358.035 238.905 L 314.325 264.075 L 314.325 214.275 L 339.685 199.675 L 358.045 189.105 L 358.045 238.905 L 358.035 238.905 Z" style="fill: rgb(67, 67, 67);"></path>
</svg><style>@media (prefers-color-scheme: light) { :root { filter: none; } }
@media (prefers-color-scheme: dark) { :root { filter: contrast(0.7407407407407407) brightness(2); } }
</style></svg>